<?xml version="1.0" encoding="UTF-8" standalone="no"?>
<!-- Created with Inkscape (http://www.inkscape.org/) -->

<svg
   xmlns:dc="http://purl.org/dc/elements/1.1/"
   xmlns:cc="http://creativecommons.org/ns#"
   xmlns:rdf="http://www.w3.org/1999/02/22-rdf-syntax-ns#"
   xmlns:svg="http://www.w3.org/2000/svg"
   xmlns="http://www.w3.org/2000/svg"
   xmlns:sodipodi="http://sodipodi.sourceforge.net/DTD/sodipodi-0.dtd"
   xmlns:inkscape="http://www.inkscape.org/namespaces/inkscape"
   version="1.1"
   id="svg16735"
   xml:space="preserve"
   width="816"
   height="1056"
   viewBox="0 0 816 1056"
   sodipodi:docname="curved-lines-abstract-svg.svg"
   inkscape:version="0.92.4 (5da689c313, 2019-01-14)"><metadata
     id="metadata16741"><rdf:RDF><cc:Work
         rdf:about=""><dc:format>image/svg+xml</dc:format><dc:type
           rdf:resource="http://purl.org/dc/dcmitype/StillImage" /><dc:title></dc:title></cc:Work></rdf:RDF></metadata><defs
     id="defs16739"><clipPath
       clipPathUnits="userSpaceOnUse"
       id="clipPath16751"><path
         d="M 0,792 H 612 V 0 H 0 Z"
         id="path16749"
         inkscape:connector-curvature="0" /></clipPath></defs><sodipodi:namedview
     pagecolor="#ffffff"
     bordercolor="#666666"
     borderopacity="1"
     objecttolerance="10"
     gridtolerance="10"
     guidetolerance="10"
     inkscape:pageopacity="0"
     inkscape:pageshadow="2"
     inkscape:window-width="1920"
     inkscape:window-height="1018"
     id="namedview16737"
     showgrid="false"
     inkscape:zoom="0.77761736"
     inkscape:cx="431.79661"
     inkscape:cy="496.71486"
     inkscape:window-x="-8"
     inkscape:window-y="-8"
     inkscape:window-maximized="1"
     inkscape:current-layer="g16743" /><g
     id="g16743"
     inkscape:groupmode="layer"
     inkscape:label="stock-abstract-lines-5-publicdomainvectors.org"
     transform="matrix(1.3333333,0,0,-1.3333333,0,1056)"><g
       id="g16745"><g
         id="g16747"
         clip-path="url(#clipPath16751)"><path
           d="m 93.18,565.762 c 18.671,26.628 35.515,51.156 51.568,72.997 14.834,20.193 29.303,38.517 44.217,54.434 24.603,26.401 51.507,46.818 80.004,60.402 24.765,11.858 51.663,19.2 78.507,21.84 24.048,2.342 48.499,0.991 71.683,-4.464 21.492,-5.039 42.779,-13.928 62.452,-26.492 19.426,-12.398 38.301,-28.947 56.474,-48.704 19.318,-20.949 39.277,-47.416 60.658,-77.84 4.319,-6.145 8.733,-12.496 13.248,-19.042"
           style="fill:none;stroke:#494E54;stroke-width:1.051;stroke-linecap:butt;stroke-linejoin:miter;stroke-miterlimit:4;stroke-dasharray:none;stroke-opacity:1"
           id="path16791"
           inkscape:connector-curvature="0" /><path
           d="m 88.356,564.922 5.659,-4.009 3.988,5.688 -5.659,4.008 z"
           style="fill:#494E54;fill-opacity:1;fill-rule:nonzero;stroke:none"
           id="path16793"
           inkscape:connector-curvature="0" /><path
           d="m 12.373,387.38 c 27.055,44.934 52.344,85.933 74.926,123.109 19.929,32.815 38.207,63.289 55.338,90.755 27.389,43.821 52.701,80.542 81.191,107.261 23.43,22.099 49.395,38.336 76.913,48.539 24.206,8.945 50.061,13.445 75.458,13.272 22.972,-0.144 46.168,-4.18 67.925,-12.343 20.589,-7.732 40.943,-19.715 59.774,-35.248 19.093,-15.74 38.099,-36.105 56.876,-59.9 16.166,-20.437 33.097,-44.458 51.217,-71.167"
           style="fill:none;stroke:#42464D;stroke-width:1.051;stroke-linecap:butt;stroke-linejoin:miter;stroke-miterlimit:4;stroke-dasharray:none;stroke-opacity:1"
           id="path16795"
           inkscape:connector-curvature="0" /><path
           d="m 7.619,386.204 5.923,-3.603 3.584,5.954 -5.922,3.602 z"
           style="fill:#42464D;fill-opacity:1;fill-rule:nonzero;stroke:none"
           id="path16797"
           inkscape:connector-curvature="0" /><path
           d="m 159.398,589.729 c 24.125,44.456 47.533,81.581 73.697,109.009 21.749,22.787 46.18,39.706 72.274,50.466 22.94,9.602 47.756,14.388 72.247,14.652 22.215,0.213 44.752,-3.358 66.036,-11.281 39.42,-14.398 79.209,-48.154 114.631,-93.19 17.021,-21.507 34.724,-47.029 53.708,-75.468"
           style="fill:none;stroke:#2F3136;stroke-width:1.051;stroke-linecap:butt;stroke-linejoin:miter;stroke-miterlimit:4;stroke-dasharray:none;stroke-opacity:1"
           id="path16799"
           inkscape:connector-curvature="0" /><path
           d="m 154.703,588.34 6.077,-3.332 3.315,6.108 -6.078,3.333 z"
           style="fill:#2F3136;fill-opacity:1;fill-rule:nonzero;stroke:none"
           id="path16801"
           inkscape:connector-curvature="0" /><path
           d="m 141.071,493.137 c 13.535,35.617 27.135,67.66 40.664,96.064 12.408,26.038 25.023,49.483 38.528,69.808 22.023,33.363 47.549,58.721 75.864,74.854 24.281,13.926 51.497,21.727 78.753,23.136 24.366,1.297 49.519,-2.549 72.987,-11.786 21.661,-8.404 43.498,-22.668 64.15,-41.564 21.764,-19.923 43.254,-45.803 64.407,-75.508 11.255,-15.739 23.076,-33.27 35.567,-52.308"
           style="fill:none;stroke:#5F6267;stroke-width:1.051;stroke-linecap:butt;stroke-linejoin:miter;stroke-miterlimit:4;stroke-dasharray:none;stroke-opacity:1"
           id="path16803"
           inkscape:connector-curvature="0" /><path
           d="m 136.602,491.127 6.467,-2.482 2.471,6.5 -6.468,2.483 z"
           style="fill:#5F6267;fill-opacity:1;fill-rule:nonzero;stroke:none"
           id="path16805"
           inkscape:connector-curvature="0" /><path
           d="m 611.991,567.205 c -20.523,31.957 -39.744,60.554 -58.262,84.137 -35.383,45.423 -76.016,78.856 -115.236,91.246 -21.31,6.844 -43.723,9.132 -65.322,7.049 -23.89,-2.305 -47.427,-9.974 -68.515,-22.846 -24.188,-14.678 -45.955,-36.726 -64.504,-65.344 -22.635,-34.776 -42.186,-80.119 -59.837,-134.373"
           style="fill:none;stroke:#494E54;stroke-width:1.051;stroke-linecap:butt;stroke-linejoin:miter;stroke-miterlimit:4;stroke-dasharray:none;stroke-opacity:1"
           id="path16807"
           inkscape:connector-curvature="0" /><path
           d="m 175.949,524.849 6.58,-2.163 2.152,6.614 -6.58,2.163 z"
           style="fill:#494E54;fill-opacity:1;fill-rule:nonzero;stroke:none"
           id="path16809"
           inkscape:connector-curvature="0" /><path
           d="m 611.991,558.103 c -21.735,34.638 -42.223,65.528 -61.789,90.481 -19.74,25.232 -40.27,46.427 -60.839,61.519 -20.45,15.022 -42.663,25.188 -64.525,29.842 -23.588,5.071 -48.059,4.314 -70.783,-1.954 -25.614,-7.037 -49.703,-21.484 -70.084,-42.626 -24.219,-25.08 -44.073,-60.862 -60.265,-105.514 -9.906,-27.075 -18.584,-57.356 -25.448,-90.533 -7.584,-36.617 -13.177,-77.529 -13.351,-122.708"
           style="fill:none;stroke:#42464D;stroke-width:1.051;stroke-linecap:butt;stroke-linejoin:miter;stroke-miterlimit:4;stroke-dasharray:none;stroke-opacity:1"
           id="path16811"
           inkscape:connector-curvature="0" /><path
           d="m 181.431,373.145 6.923,-0.028 0.027,6.959 -6.923,0.027 z"
           style="fill:#42464D;fill-opacity:1;fill-rule:nonzero;stroke:none"
           id="path16813"
           inkscape:connector-curvature="0" /><path
           d="m 270.128,478.467 c -3.431,53.019 3.357,99.447 15.472,136.345 10.218,31.29 24.908,56.084 43.135,73.608 16.07,15.496 34.873,25.482 54.952,29.701 18.258,3.89 37.999,3.027 57.128,-2.653 18.187,-5.38 36.659,-15.484 54.013,-29.7 17.761,-14.533 35.435,-34.029 52.396,-56.872 18.876,-25.251 38.464,-57.033 58.798,-92.446 1.976,-3.447 3.966,-6.936 5.969,-10.467"
           style="fill:none;stroke:#2F3136;stroke-width:1.051;stroke-linecap:butt;stroke-linejoin:miter;stroke-miterlimit:4;stroke-dasharray:none;stroke-opacity:1"
           id="path16815"
           inkscape:connector-curvature="0" /><path
           d="m 266.899,474.769 6.908,0.452 -0.449,6.943 -6.909,-0.451 z"
           style="fill:#2F3136;fill-opacity:1;fill-rule:nonzero;stroke:none"
           id="path16817"
           inkscape:connector-curvature="0" /><path
           d="m 611.991,548.353 c -11.909,19.512 -23.356,37.658 -34.313,54.057 -19.017,28.45 -37.885,53.419 -56.607,72.933 -17.815,18.578 -36.671,33.501 -55.538,43.401 -19.352,10.178 -39.962,15.868 -59.931,16.989 -21.699,1.244 -43.441,-2.732 -63.156,-11.725 -22.137,-10.062 -42.428,-26.867 -59.084,-49.605 -19.643,-26.762 -35.26,-62.687 -46.708,-106.318"
           style="fill:none;stroke:#5F6267;stroke-width:1.051;stroke-linecap:butt;stroke-linejoin:miter;stroke-miterlimit:4;stroke-dasharray:none;stroke-opacity:1"
           id="path16819"
           inkscape:connector-curvature="0" /><path
           d="m 232.424,565.607 6.695,-1.773 1.765,6.729 -6.694,1.774 z"
           style="fill:#5F6267;fill-opacity:1;fill-rule:nonzero;stroke:none"
           id="path16821"
           inkscape:connector-curvature="0" /><path
           d="m 266.044,606.113 c 10.753,33.173 25.363,60.085 43.333,79.841 15.791,17.28 34.359,29.553 54.316,36.18 18.033,6.166 37.704,7.696 57.091,4.85 18.139,-2.675 36.703,-9.351 54.235,-20.203 17.292,-10.596 34.707,-25.819 51.182,-44.167 17.421,-19.437 35.059,-43.698 52.774,-71.105 10.616,-16.411 21.645,-34.456 33.016,-53.738"
           style="fill:none;stroke:#5F6267;stroke-width:1.051;stroke-linecap:butt;stroke-linejoin:miter;stroke-miterlimit:4;stroke-dasharray:none;stroke-opacity:1"
           id="path16823"
           inkscape:connector-curvature="0" /><path
           d="m 261.681,603.883 6.583,-2.156 2.144,6.617 -6.583,2.155 z"
           style="fill:#5F6267;fill-opacity:1;fill-rule:nonzero;stroke:none"
           id="path16825"
           inkscape:connector-curvature="0" /><path
           d="m 611.991,513.358 c -1.656,3.083 -3.308,6.14 -4.958,9.165 -21.407,39.385 -43.089,75.365 -63.994,103.454 -18.77,25.317 -39.036,46.596 -58.966,60.878 -19.778,14.17 -41.15,22.69 -61.499,24.883 -22.008,2.403 -43.814,-2.138 -62.474,-13.37 -21.183,-12.675 -39.349,-34.375 -51.433,-63.523 -14.543,-34.581 -22.319,-81.043 -18.114,-135.017 2.406,-31.86 9.202,-65.922 21.835,-100.771 14.157,-39.005 36.042,-79.674 66.252,-119.177"
           style="fill:none;stroke:#494E54;stroke-width:1.051;stroke-linecap:butt;stroke-linejoin:miter;stroke-miterlimit:4;stroke-dasharray:none;stroke-opacity:1"
           id="path16827"
           inkscape:connector-curvature="0" /><path
           d="m 378.006,275 5.487,4.241 -4.218,5.517 -5.49,-4.24 z"
           style="fill:#494E54;fill-opacity:1;fill-rule:nonzero;stroke:none"
           id="path16829"
           inkscape:connector-curvature="0" /><path
           d="m 0,491.01 c 0.837,0.923 1.671,1.843 2.502,2.761 34.764,38.647 63.943,75.119 89.352,107.502 21.261,27.079 40.424,51.811 59.177,73.194 30.451,35.072 62.502,62.076 96.822,79.682 28.948,14.825 60.397,24.078 92.269,27.159 27.836,2.794 56.158,0.974 82.578,-5.896 24.295,-6.321 48.296,-17.537 70.09,-33.21 21.742,-15.605 42.906,-36.582 63.733,-61.653 17.465,-21.053 35.753,-46.241 55.468,-74.523"
           style="fill:none;stroke:#42464D;stroke-width:1.051;stroke-linecap:butt;stroke-linejoin:miter;stroke-miterlimit:4;stroke-dasharray:none;stroke-opacity:1"
           id="path16831"
           inkscape:connector-curvature="0" /></g></g></g></svg>